# xmcd
#
# Track frame offsets: 
#        150
#        14191
#        37449
#        71355
#        93951
#        113211
#        131260
#        149337
#        168006
#        189007
#        207929
#        232152
#
# Disc length: 4440 seconds
#
# Revision: 7
# Processed by: cddbd v1.5.2PL0 Copyright (c) Steve Scherf et al.
# Submitted via: ExactAudioCopy v0.99pb5
#
DISCID=a711560c
DTITLE=Annie Lennox - Bare
DYEAR=2003
DGENRE=Pop
TTITLE0=A Thousand Beautiful Things
TTITLE1=Pavement Cracks
TTITLE2=The Hurting Time
TTITLE3=Honestly
TTITLE4=Wonderful
TTITLE5=Bitter Pill
TTITLE6=Loneliness
TTITLE7=The Saddest Song I've Got
TTITLE8=Erased
TTITLE9=Twisted
TTITLE10=Oh God (Prayer)
TTITLE11=Crap Data
EXTD=
EXTT0=
EXTT1=
EXTT2=
EXTT3=
EXTT4=
EXTT5=
EXTT6=
EXTT7=
EXTT8=
EXTT9=
EXTT10=
EXTT11=
PLAYORDER=
